<svg xmlns="http://www.w3.org/2000/svg" viewBox="0 0 64 64" fill="none" stroke-width="3" stroke-linecap="round" stroke-linejoin="round"><polyline points="9.00,17.00 55.00,17.00" stroke="#969696"/><polyline points="47.33,21.70 55.00,17.00 47.33,12.30" stroke="#969696"/><polyline points="10.00,29.00 10.00,51.00 54.00,51.00 54.00,29.00" stroke="#969696"/><polyline points="8.00,35.00 9.00,35.52 10.00,36.04 11.00,36.53 12.00,37.00 13.00,37.44 14.00,37.83 15.00,38.17 16.00,38.46 17.00,38.70 18.00,38.86 19.00,38.97 20.00,39.00 21.00,38.97 22.00,38.86 23.00,38.70 24.00,38.46 25.00,38.17 26.00,37.83 27.00,37.44 28.00,37.00 29.00,36.53 30.00,36.04 31.00,35.52 32.00,35.00 33.00,34.48 34.00,33.96 35.00,33.47 36.00,33.00 37.00,32.56 38.00,32.17 39.00,31.83 40.00,31.54 41.00,31.30 42.00,31.14 43.00,31.03 44.00,31.00 45.00,31.03 46.00,31.14 47.00,31.30 48.00,31.54 49.00,31.83 50.00,32.17 51.00,32.56 52.00,33.00 53.00,33.47 54.00,33.96 55.00,34.48 56.00,35.00" stroke="#969696"/></svg>