<svg xmlns="http://www.w3.org/2000/svg" viewBox="0 0 64 64" fill="none" stroke-width="3" stroke-linecap="round" stroke-linejoin="round"><polyline points="8.00,24.00 9.00,24.52 10.00,25.04 11.00,25.53 12.00,26.00 13.00,26.44 14.00,26.83 15.00,27.17 16.00,27.46 17.00,27.70 18.00,27.86 19.00,27.97 20.00,28.00 21.00,27.97 22.00,27.86 23.00,27.70 24.00,27.46 25.00,27.17 26.00,26.83 27.00,26.44 28.00,26.00 29.00,25.53 30.00,25.04 31.00,24.52 32.00,24.00 33.00,23.48 34.00,22.96 35.00,22.47 36.00,22.00 37.00,21.56 38.00,21.17 39.00,20.83 40.00,20.54 41.00,20.30 42.00,20.14 43.00,20.03 44.00,20.00 45.00,20.03 46.00,20.14 47.00,20.30 48.00,20.54 49.00,20.83 50.00,21.17 51.00,21.56 52.00,22.00 53.00,22.47 54.00,22.96 55.00,23.48 56.00,24.00" stroke="#969696"/><polyline points="32.00,47.00 9.00,47.00" stroke="#969696"/><polyline points="16.67,42.30 9.00,47.00 16.67,51.70" stroke="#969696"/><polyline points="32.00,47.00 55.00,47.00" stroke="#969696"/><polyline points="47.33,51.70 55.00,47.00 47.33,42.30" stroke="#969696"/></svg>