<svg xmlns="http://www.w3.org/2000/svg" viewBox="0 0 64 64" fill="none" stroke-width="3" stroke-linecap="round" stroke-linejoin="round"><polyline points="19.00,33.00 19.00,55.00 52.00,55.00 52.00,33.00" stroke="#969696"/><polyline points="8.00,39.00 9.00,39.52 10.00,40.04 11.00,40.53 12.00,41.00 13.00,41.44 14.00,41.83 15.00,42.17 16.00,42.46 17.00,42.70 18.00,42.86 19.00,42.97 20.00,43.00 21.00,42.97 22.00,42.86 23.00,42.70 24.00,42.46 25.00,42.17 26.00,41.83 27.00,41.44 28.00,41.00 29.00,40.53 30.00,40.04 31.00,39.52 32.00,39.00 33.00,38.48 34.00,37.96 35.00,37.47 36.00,37.00 37.00,36.56 38.00,36.17 39.00,35.83 40.00,35.54 41.00,35.30 42.00,35.14 43.00,35.03 44.00,35.00 45.00,35.03 46.00,35.14 47.00,35.30 48.00,35.54 49.00,35.83 50.00,36.17 51.00,36.56 52.00,37.00 53.00,37.47 54.00,37.96 55.00,38.48 56.00,39.00" stroke="#8981D1"/><polyline points="17.00,9.00 17.00,27.00" stroke="#BE8435"/><polyline points="8.00,18.00 26.00,18.00" stroke="#BE8435"/></svg>